<svg width="1024" height="848" viewBox="0 0 1024 848" fill="none" xmlns="http://www.w3.org/2000/svg">
<path d="M705.53 592.383C694.955 622.091 676.956 644.754 648.307 658.349C616.144 673.612 573.478 666.706 547.984 641.704C546.22 639.974 544.784 637.909 542.304 634.93C534.265 650.58 522.285 659.444 506.489 664.263C505.995 660.585 507.31 657.974 508.289 655.465C516.505 634.419 518.969 612.331 520.762 590.047C526.383 520.178 522.885 450.192 523.605 380.263C524.122 329.938 523.342 279.6 523.947 229.278C524.191 208.944 529.572 189.328 543.25 173.7C557.247 157.708 576.251 150.595 597.209 150.582C618.031 150.568 638.842 149.968 659.664 150.008C723.659 150.133 787.654 150.026 851.648 149.855C856.119 149.843 856.856 152.794 857.846 155.694C863.44 172.074 868.823 188.526 874.454 204.893C886.584 240.147 898.909 275.334 910.99 310.604C922.532 344.302 933.852 378.076 945.301 411.805C947.226 417.479 949.017 423.227 951.411 428.704C953.335 433.105 951.928 435.382 948.073 437.477C937.919 442.996 927.064 446.219 915.602 446.266C865.94 446.47 816.276 446.491 766.614 446.255C755.861 446.204 745.66 442.907 735.967 438.101C731.455 435.864 730.283 433.328 732.061 428.247C746.251 387.709 760.148 347.069 774.112 306.452C782.175 282.997 790.189 259.525 798.236 236.065C800.258 230.173 801.03 229.683 806.907 232.031C814.174 234.934 821.273 238.255 828.518 241.217C831.659 242.501 831.736 244.535 830.807 247.234C822.088 272.566 813.382 297.901 804.696 323.244C795.25 350.801 785.814 378.362 776.43 405.94C775.805 407.778 774.701 409.577 775.348 412.693C819.487 412.281 863.791 413.542 908.26 411.79C908.564 407.755 906.671 405.043 905.685 402.14C893.742 366.985 881.749 331.847 869.695 296.73C858.019 262.718 846.341 228.705 834.491 194.753C829.974 181.81 832.416 184.189 819.784 184.172C748.456 184.076 677.125 184.462 605.801 183.934C579.319 183.737 562.511 197.393 555.342 220.81C552.494 230.112 550.839 239.482 550.886 249.269C551.039 281.588 551.221 313.913 550.79 346.227C550.499 368.055 550.336 389.881 550.483 411.705C550.547 421.192 550.796 430.668 550.394 440.153C550.305 442.251 549.964 444.493 551.677 446.921C554.339 443.074 556.692 439.301 559.408 435.81C576.338 414.054 598.837 404.652 626.018 407.187C665.29 410.848 689.349 434.202 703.048 469.425C718.766 509.837 719.741 550.83 705.53 592.383ZM662.614 466.828C656.609 455.957 649.731 445.932 639.197 438.703C618.996 424.84 592.205 424.734 573.964 443.468C564.066 453.634 558.573 466.02 555.416 479.42C548.212 510.004 549.236 540.868 553.887 571.664C557.14 593.201 564.139 613.195 578.682 630.174C597.436 652.07 628.282 653.655 648.961 633.58C661.468 621.438 668.772 606.429 673.482 590.13C679.4 569.653 680.554 548.626 678.819 527.397C677.107 506.46 672.498 486.33 662.614 466.828Z" fill="#3E2723"/>
<path d="M527.49 163.492C512.516 181.434 505.769 202.453 503.505 224.768C500.899 250.454 501.417 276.327 501.401 302.136C501.353 381.133 501.5 460.131 501.277 539.127C501.176 575.148 497.737 610.934 489.314 645.991C479.156 688.268 458.114 724.486 425.224 753.196C408.929 767.42 389.935 777.038 368.501 781.225C365.218 781.867 360.529 783.853 358.875 780.259C357.083 776.365 361.978 774.561 364.665 772.74C396.519 751.159 422.109 723.777 441.27 690.419C454.694 667.048 462.747 641.772 467.498 615.362C470.917 596.359 473.379 577.22 473.764 557.911C475.853 453.108 474.262 348.293 474.531 243.483C474.574 226.557 470.45 210.223 462.829 194.886C459.136 187.452 454.129 183.887 445.225 183.918C358.895 184.219 272.564 184.158 186.234 184C181.142 183.99 179.021 185.656 177.445 190.377C166.113 224.318 154.526 258.173 142.948 292.031C129.752 330.622 116.481 369.188 103.253 407.769C102.833 408.993 102 410.178 103.163 412.671C146.969 412.495 191.277 413.024 236.18 411.821C235.461 405.869 233.142 400.904 231.413 395.839C216.678 352.673 201.811 309.553 186.987 266.417C184.769 259.963 182.689 253.458 180.315 247.061C179.294 244.31 179.767 242.744 182.516 241.566C190.476 238.154 198.408 234.672 206.275 231.052C209.597 229.523 211.007 230.677 212.09 233.862C223.02 266.011 234.005 298.143 245.054 330.253C256.373 363.148 267.714 396.036 279.233 428.861C280.675 432.969 279.994 435.317 276.2 437.406C266.231 442.896 255.603 446.239 244.28 446.28C194.449 446.459 144.617 446.477 94.7862 446.28C83.8461 446.236 73.4708 443.07 63.6712 438.061C59.1625 435.756 58.1679 433.002 59.8934 428.021C75.753 382.241 91.3822 336.382 107.031 290.53C122.139 246.263 137.187 201.976 152.269 157.7C154.87 150.064 154.887 150.046 163.097 150.047C242.928 150.054 322.761 149.721 402.589 150.222C444.914 150.488 487.239 150.413 529.562 150.703C532.846 150.725 536.129 150.706 539.046 150.706C535.328 154.818 531.526 159.023 527.49 163.492Z" fill="#3E2723"/>
<path d="M570 123.044C537.026 123.013 504.541 123.503 472.08 122.814C435.278 122.032 398.502 123.182 361.715 123.117C354.156 123.103 354.157 122.939 354.191 115.713C354.227 108.234 354 100.751 353.707 93.2763C353.571 89.8075 354.944 88.349 358.379 88.6566C359.701 88.775 361.043 88.6674 362.375 88.6674C457.832 88.6666 553.289 88.6662 648.745 88.6662C657.065 88.6662 657.081 88.6673 657.056 97.2361C657.039 103.566 657.078 109.899 656.901 116.225C656.721 122.641 656.284 123 649.956 123.006C623.471 123.031 596.985 123.033 570 123.044Z" fill="#3E2723"/>
<path d="M137 500.906C121.838 500.909 107.176 500.94 92.5142 500.902C86.4715 500.886 85.9813 500.357 85.9531 494.322C85.9195 487.157 86.1526 479.985 85.87 472.832C85.6825 468.085 87.3451 466.498 92.1754 466.527C128.995 466.747 165.817 466.743 202.638 466.774C217.133 466.787 231.63 466.853 246.121 466.594C250.477 466.517 252.11 468.047 252.074 472.299C252.008 480.128 252.084 487.964 252.37 495.787C252.505 499.488 251.022 500.92 247.463 500.88C241.466 500.814 235.468 500.912 229.47 500.912C198.813 500.915 168.156 500.909 137 500.906Z" fill="#3E2723"/>
<path d="M867 466.779C884.491 466.73 901.484 466.822 918.471 466.538C923.16 466.459 924.547 468.124 924.421 472.604C924.211 480.082 923.958 487.591 925.084 495.046C925.694 499.09 923.878 500.909 919.81 500.881C901.99 500.757 884.169 500.675 866.349 500.636C860.698 500.624 855.046 500.861 849.395 500.867C821.41 500.893 793.425 500.895 765.44 500.869C759.017 500.864 758.388 500.307 759.05 493.993C759.971 485.202 759.347 476.385 759.678 466.777C795.388 466.777 830.944 466.777 867 466.779Z" fill="#3E2723"/>
</svg>
